/* XPM */
static char *_32a5bd027714da882b70fc2165934907VYs5jMry9zddVLB[] = {
/* columns rows colors chars-per-pixel */
"18 18 98 2 ",
"   c black",
".  c #1B1B1B",
"X  c #1B1B1B",
"o  c #1B1B1B",
"O  c #1B1B1B",
"+  c #21211B",
"@  c #21211B",
"#  c #1B1B1B",
"$  c #1B1B1B",
"%  c #6C671B",
"&  c #ADA41B",
"*  c #1B1B1B",
"=  c #3F2A1B",
"-  c #4F311B",
";  c #9E821B",
":  c #FEE61B",
">  c #FEEC1B",
",  c #FFF21B",
"<  c #A0981B",
"1  c #524F1B",
"2  c #413F1B",
"3  c #1B1B1B",
"4  c #5F371B",
"5  c None",
"6  c #E6941B",
"7  c #FCCA1B",
"8  c #FDDC1B",
"9  c #EDE11B",
"0  c #CCC21B",
"q  c #635F1B",
"w  c #1B1B1B",
"e  c #63391B",
"r  c #DA6A1B",
"t  c #F6981B",
"y  c #FBC41B",
"u  c #FBC61B",
"i  c #FCD31B",
"p  c #FDDA1B",
"a  c #FCD21B",
"s  c #FCCF1B",
"d  c #FEE81B",
"f  c #E5DA1B",
"g  c #67621B",
"h  c #FBC01B",
"j  c #FBC31B",
"k  c #FDDE1B",
"l  c #FFEE1B",
"z  c #FEE11B",
"x  c #FCCC1B",
"c  c #F8A51B",
"v  c #F6941B",
"b  c #FABB1B",
"n  c #FDD81B",
"m  c #FEE21B",
"M  c #FDD61B",
"N  c #F37D1B",
"B  c #F8A91B",
"V  c #FFED1B",
"C  c #F9AF1B",
"Z  c #F79E1B",
"A  c #F69B1B",
"S  c #F69A1B",
"D  c #F8AF1B",
"F  c #FCD01B",
"G  c #F5931B",
"H  c #FAB91B",
"J  c #FABF1B",
"K  c #FABC1B",
"L  c #F6961B",
"P  c #F37F1B",
"I  c #F4881B",
"U  c #FBC21B",
"Y  c #FAB71B",
"T  c #F9B01B",
"R  c #1B1B1B",
"E  c #57341B",
"W  c #9A501B",
"Q  c #C7621B",
"!  c #F2741B",
"~  c #F5901B",
"^  c #F8A71B",
"/  c #CEA51B",
"(  c #A29A1B",
")  c #5B571B",
"_  c #1B1B1B",
"`  c #201D1B",
"'  c #211D1B",
"]  c #7E441B",
"[  c #F2751B",
"{  c #F2761B",
"}  c #7E471B",
"|  c #21211B",
" . c #21201B",
".. c #1B1B1B",
"X. c #1B1B1B",
"o. c #56331B",
"O. c #74401B",
"+. c #1B1B1B",
/* pixels */
"                                    ",
"      . X X X X X X X X X X .       ",
"  o O + @ @ @ @ @ @ @ @ @ @ + O o   ",
"  # $ % & & & & & & & & & & % $ #   ",
"* = - ; : : : : : : : : > , < 1 2 * ",
"3 4 5 6 7 7 7 7 7 7 7 7 8 , 9 0 q 3 ",
"w e r t y y u i p p a u s 8 d f g w ",
"w e r t y h j k l l z x u y k f g w ",
"w e r t y c v b a a n m M y k f g w ",
"w e r t y t N B y y i V k y k f g w ",
"w e r t y t N B y y i V k y k f g w ",
"w e r t y C Z A S S D i F y k f g w ",
"w e r G H J K L P P L K y y k f g w ",
"w e r N I B U Y T T Y U y y k f g w ",
"R E W Q ! ~ ^ ^ ^ ^ ^ ^ ^ ^ / ( ) R ",
"_ ` ' ] ! [ { { { { { { { { } |  ._ ",
"  ..X.o.O.O.O.O.O.O.O.O.O.O.o.X...  ",
"      +.w w w w w w w w w w +.      "
};
