/* XPM */
static char *_fdb9759919e4ab88063c98dcdc9adf5a29qe5gQqlPykIdg[] = {
/* columns rows colors chars-per-pixel */
"18 18 98 2 ",
"   c black",
".  c #231C19",
"X  c #231C19",
"o  c #231C19",
"O  c #231C19",
"+  c #231C19",
"@  c #54413A",
"#  c #B18778",
"$  c None",
"%  c #231C19",
"&  c #84655A",
"*  c #9B7669",
"=  c #A87B6D",
"-  c #BA7E70",
";  c #6F564C",
":  c #C88677",
">  c #D89B89",
",  c #E7B09C",
"<  c #B08777",
"1  c #231C19",
"2  c #DA9F8D",
"3  c #CE8D7D",
"4  c #B3796B",
"5  c #704941",
"6  c #85665B",
"7  c #A16055",
"8  c #B56B5F",
"9  c #C27C6E",
"0  c #DBA08D",
"q  c #C48072",
"w  c #8C554C",
"e  c #44352F",
"r  c #8D554C",
"t  c #985B51",
"y  c #5C4039",
"u  c #B08778",
"i  c #BE7A6D",
"p  c #9D7166",
"a  c #A57A6D",
"s  c #C27F71",
"d  c #AE675C",
"f  c #8E574D",
"g  c #B1685D",
"h  c #9E5953",
"j  c #6A3A39",
"k  c #6B3A3A",
"l  c #A15B54",
"z  c #B46A5E",
"x  c #8F564D",
"c  c #493731",
"v  c #DCA895",
"b  c #463530",
"n  c #8C544B",
"m  c #B2695E",
"M  c #9C5752",
"N  c #864646",
"B  c #884747",
"V  c #9F5A53",
"C  c #B36A5E",
"Z  c #985C51",
"A  c #2E2420",
"S  c #733E3E",
"D  c #864746",
"F  c #894847",
"G  c #874747",
"H  c #8A4948",
"J  c #8E4C4A",
"K  c #774240",
"L  c #4C322C",
"P  c #9B5C52",
"I  c #784140",
"U  c #3E2825",
"Y  c #332320",
"T  c #322320",
"R  c #231C19",
"E  c #3C2724",
"W  c #372422",
"Q  c #3B2925",
"!  c #231C19",
"~  c #231C19",
"^  c #231C19",
"/  c #231C19",
"(  c #231C19",
")  c #231C19",
"_  c #663837",
"`  c #3A2624",
"'  c #231C19",
"]  c #382723",
"[  c #6F453D",
"{  c #9B5751",
"}  c #231C19",
"|  c #2B201D",
" . c #AD675B",
".. c #2B201D",
"X. c #AD675B",
"o. c #8E4C4A",
"O. c #3E2825",
"+. c #231C19",
/* pixels */
"                                    ",
"            . X X X X X X X X o     ",
"    O + + + @ # # # # # # # # $ o   ",
"  % & * * * = - ; ; - : : > , < 1   ",
"  X # , 2 3 4 5 6 6 5 7 8 9 > < 1   ",
"  X # 0 q 8 w e , , e r 8 8 : < 1   ",
"  X # : 8 8 t y u u y t 8 8 i p 1   ",
"  X a s 8 8 d f e e f d 8 g h j 1   ",
"  X k l z 8 x c v v b n m M N j 1   ",
"  X k B V 8 C Z A A S D F G N j 1   ",
"  X k N H J K L P I U Y Y Y Y T R   ",
"  . E U U U W Q m F Y ! ~ ~ ~ ^     ",
"    / ( ( ( ) Q m F _ ` '           ",
"            R ] [ { H U (           ",
"              } |  .J U (           ",
"              } |  .J U (           ",
"              R ..X.o.O.+.          ",
"                                    "
};
