/* XPM */
static char *_a811691d6c74defcab73b192f511709xJ4BGE5f1ucYQJdE[] = {
/* columns rows colors chars-per-pixel */
"18 18 8 1 ",
"  c None",
". c #0E0D0E",
"X c #D2202C",
"o c #EADFD1",
"O c #7C776F",
"+ c #B3AAA1",
"@ c #0A7030",
"# c #EBA724",
/* pixels */
"   ...            ",
"   .X......       ",
"   ..XXXXX..      ",
"    ...XXXX.      ",
"     ...XX.....   ",
"     .oooOOOOO.   ",
"     .o.........  ",
"     .O.ooo++++.  ",
"     .O.o.+.+.+.  ",
"     .O.+.+.+.+.  ",
"     .O.+.+.+.+.  ",
"     .O.+++++++.  ",
"    ............  ",
"    .@@@######.   ",
"   ..@@@#......   ",
"   .@@@@#.OOOO.   ",
"   .#####.OOOO.   ",
"   ............   "
};
