/* XPM */
static char *_a38894cb0524710e9db151d47885763cCBpzOhpqlTbbA7v[] = {
/* columns rows colors chars-per-pixel */
"18 18 66 1 ",
"  c black",
". c #242B33",
"X c #242B33",
"o c #242B33",
"O c None",
"+ c #979DB4",
"@ c #A3A9C2",
"# c #AEB4CE",
"$ c #939AB4",
"% c #8D94AE",
"& c #ABB1CB",
"* c #7B829C",
"= c #787F99",
"- c #9299B3",
"; c #727993",
": c #8087A1",
"> c #AAB0CA",
", c #676F89",
"< c #636B85",
"1 c #8289A3",
"2 c #8990AA",
"3 c #757C96",
"4 c #9198B2",
"5 c #8E95AF",
"6 c #666D87",
"7 c #A2A8C2",
"8 c #848BA5",
"9 c #7E859F",
"0 c #9097B1",
"q c #99A0BA",
"w c #606881",
"e c #5D657D",
"r c #5E677F",
"t c #69718B",
"y c #6B728C",
"u c #9298AF",
"i c #767E97",
"p c #50596E",
"a c #3D4857",
"s c #485264",
"d c #646C86",
"f c #868EA8",
"g c #9298AE",
"h c #3E4856",
"j c #5A637A",
"k c #6F7791",
"l c #6F7690",
"z c #656D87",
"x c #394351",
"c c #586178",
"v c #707791",
"b c #525C71",
"n c #555E74",
"m c #666E88",
"M c #454F60",
"N c #5C647C",
"B c #4C5669",
"V c #5D667E",
"C c #4E576B",
"Z c #596279",
"A c #434E5F",
"S c #545D73",
"D c #576077",
"F c #343D4A",
"G c #4F586C",
"H c #4B5568",
/* pixels */
"  .XXXXXXXXXXXX.  ",
" oO++++++++++++Oo ",
".O@#$%##&*===$#@O.",
"X+#-;:##>,<<<;-#+X",
"X+$;<:##>,12;<;$+X",
"X+=3;344567#:<<=+X",
"X+=89<<<<<0q=<<=+X",
"X+=<wer<<<<<<ty=+X",
"Xui<pasd,,d<<f5igX",
"Xhj<pask>>l<<z6jhX",
"Xxc<werv##k<<<<cxX",
"Xxcbn<<m==m<<<cMxX",
"XxcjN<<<<<pBj<VCxX",
"Xxc<Zpn<<<AaSZDcxX",
"Xxc<pas<<<pBjDncxX",
".FGcHaMccccccccGF.",
" oFxxxxxxxxxxxxFo ",
"  .XXXXXXXXXXXX.  "
};
